<svg width="21" height="20" viewBox="0 0 21 20" fill="none" xmlns="http://www.w3.org/2000/svg">
<g clip-path="url(#clip0_234_1595)">
<g clip-path="url(#clip1_234_1595)">
<path d="M10.5 1C5.5374 1 1.5 5.0374 1.5 10C1.5 14.9626 5.5374 19 10.5 19C15.4626 19 19.5 14.9626 19.5 10C19.5 5.0374 15.4626 1 10.5 1ZM10.5 17.2C6.5301 17.2 3.3 13.9699 3.3 10C3.3 6.0301 6.5301 2.8 10.5 2.8C14.4699 2.8 17.7 6.0301 17.7 10C17.7 13.9699 14.4699 17.2 10.5 17.2Z" fill="#02458D"/>
<path d="M11.3346 5.8335H9.66797V10.8335H14.668V9.16683H11.3346V5.8335Z" fill="#02458D"/>
</g>
</g>
<defs>
<clipPath id="clip0_234_1595">
<rect width="20" height="20" fill="white" transform="translate(0.5)"/>
</clipPath>
<clipPath id="clip1_234_1595">
<rect width="20" height="20" fill="white" transform="translate(0.5)"/>
</clipPath>
</defs>
</svg>
