<svg width="20" height="20" viewBox="0 0 20 20" fill="none" xmlns="http://www.w3.org/2000/svg">
<g clip-path="url(#clip0_40_132)">
<g clip-path="url(#clip1_40_132)">
<path d="M9 1C4.0374 1 0 5.0374 0 10C0 14.9626 4.0374 19 9 19C13.9626 19 18 14.9626 18 10C18 5.0374 13.9626 1 9 1ZM9 17.2C5.0301 17.2 1.8 13.9699 1.8 10C1.8 6.0301 5.0301 2.8 9 2.8C12.9699 2.8 16.2 6.0301 16.2 10C16.2 13.9699 12.9699 17.2 9 17.2Z" fill="#02458D"/>
<path d="M9.8346 5.8335H8.16797V10.8335H13.168V9.16683H9.8346V5.8335Z" fill="#02458D"/>
</g>
</g>
<defs>
<clipPath id="clip0_40_132">
<rect width="20" height="20" fill="white"/>
</clipPath>
<clipPath id="clip1_40_132">
<rect width="20" height="20" fill="white"/>
</clipPath>
</defs>
</svg>
