<svg width="25" height="25" viewBox="0 0 25 25" fill="none" xmlns="http://www.w3.org/2000/svg">
<path d="M7.1838 0.375488C3.23889 0.375488 0.03125 3.58313 0.03125 7.52804V17.4316C0.03125 21.3765 3.23889 24.5841 7.1838 24.5841H17.0873C21.0322 24.5841 24.2399 21.3765 24.2399 17.4316V7.52804C24.2399 3.58313 21.0322 0.375488 17.0873 0.375488H7.1838ZM18.7379 4.77706C19.3431 4.77706 19.8383 5.27223 19.8383 5.87745C19.8383 6.48267 19.3431 6.97784 18.7379 6.97784C18.1327 6.97784 17.6375 6.48267 17.6375 5.87745C17.6375 5.27223 18.1327 4.77706 18.7379 4.77706ZM12.1356 6.42765C15.4753 6.42765 18.1877 9.14011 18.1877 12.4798C18.1877 15.8195 15.4753 18.532 12.1356 18.532C8.79587 18.532 6.08341 15.8195 6.08341 12.4798C6.08341 9.14011 8.79587 6.42765 12.1356 6.42765ZM12.1356 7.52804C9.40659 7.52804 7.1838 9.75083 7.1838 12.4798C7.1838 15.2088 9.40659 17.4316 12.1356 17.4316C14.8645 17.4316 17.0873 15.2088 17.0873 12.4798C17.0873 9.75083 14.8645 7.52804 12.1356 7.52804Z" fill="white"/>
</svg>
