<svg width="187" height="44" viewBox="0 0 187 44" fill="none" xmlns="http://www.w3.org/2000/svg">
<path d="M7.6 20.9333C3.46667 32.5333 0 42.4 0 42.9333C0 43.6 2.4 44 5.2 44C10 44 10.5333 43.6 12 39.3333L13.6 34.5333L21.7333 34.9333C29.7333 35.3333 30 35.4667 31.2 39.6C32.2667 43.6 32.9333 44 37.4667 44C43.0667 44 43.7333 42.6667 41.3333 37.0667C40.6667 35.3333 37.7333 27.3333 34.8 19.3333C31.8667 11.2 29.0667 3.6 28.6667 2.26666C28 0.533333 26.1333 -3.8147e-06 21.4667 -3.8147e-06H15.2L7.6 20.9333ZM25.8667 23.6C26.8 26.4 26.4 26.6667 21.4667 26.6667H16.1333L18.1333 20.9333C21.6 10.9333 21.4667 11.0667 23.3333 16C24.2667 18.5333 25.3333 22 25.8667 23.6Z" fill="white"/>
<path d="M58.6667 0.933392C50.9333 3.86673 44 13.4667 44 21.3334C44 34.9334 58 46.2667 70.8 43.0667C74.9333 42.0001 75.3333 41.4667 75.7333 36.1334C76.1333 30.9334 75.8667 30.4001 73.7333 31.3334C65.6 34.8001 58.5333 32.5334 55.8667 25.6001C52 15.4667 63.3333 6.66673 73.4667 12.0001C75.7333 13.3334 76 12.9334 76 7.46672C76 3.33339 75.3333 1.33339 73.8667 0.80006C71.3333 -0.133274 61.4667 -0.133274 58.6667 0.933392Z" fill="white"/>
<path d="M78.667 3.86666C78.667 7.33333 79.2003 7.86666 83.067 8.26667L87.3337 8.66666L87.7337 26.2667L88.1337 44H93.3337H98.5337L98.9337 26.2667L99.3337 8.66666L103.734 8.26667C107.467 7.86666 108 7.33333 108 3.86666V-3.8147e-06H93.3337H78.667V3.86666Z" fill="white"/>
<path d="M174 6.53333C172.667 7.73333 158.267 10.9333 154.667 10.8C153.6 10.6667 148.4 10.2667 143.2 9.86666C132.8 8.93333 126.667 10.9333 124 16C121.6 20.5333 116.267 40.4 116.933 42.2667C117.333 43.2 118.667 44 119.867 44C122.133 44 137.6 30.1333 139.2 26.6667C139.6 25.6 139.733 26.4 139.333 28.5333C138.533 32.2667 138.667 32.2667 143.467 31.3333C146.133 30.9333 149.467 29.2 150.933 27.6L153.333 24.6667L152 28.4C151.333 30.5333 150.667 34.8 150.667 38.1333C150.667 44 150.667 44 155.333 44C158.8 44 159.733 43.6 159.2 42C157.2 36.9333 171.6 20.2667 180.533 17.3333C182.8 16.6667 185.333 14.9333 186.267 13.4667C187.6 11.3333 187.2 10.8 182.533 9.33333C179.733 8.4 177.333 7.06667 177.333 6.4C177.333 4.93333 175.467 5.06667 174 6.53333Z" fill="white"/>
<path d="M167.6 29.6C164 34.1333 163.867 34.9333 165.334 39.3333C166.667 43.4667 167.334 44 171.6 44C175.467 44 176 43.6 174.8 42.1333C174 41.2 172.8 36.8 172.267 32.5333L171.334 24.6667L167.6 29.6Z" fill="white"/>
<path d="M130.8 37.4667C126.8 41.7333 127.2 44 132 44C135.733 44 135.866 43.7333 135.066 39.6C134 34 134 34 130.8 37.4667Z" fill="white"/>
</svg>
