<svg width="28" height="28" viewBox="0 0 28 28" fill="none" xmlns="http://www.w3.org/2000/svg">
<path fill-rule="evenodd" clip-rule="evenodd" d="M27.5254 13.7549C27.5254 21.351 21.3667 27.5098 13.7705 27.5098C6.17438 27.5098 0.015625 21.351 0.015625 13.7549C0.015625 6.15876 6.17438 0 13.7705 0C21.3667 0 27.5254 6.15876 27.5254 13.7549ZM14.2634 10.1546C12.9257 10.7105 10.2516 11.8625 6.24202 13.6093C5.59094 13.8684 5.24937 14.1217 5.21842 14.3693C5.16569 14.7889 5.69066 14.9539 6.40364 15.1774C6.50106 15.2084 6.60193 15.2393 6.70509 15.2737C7.40774 15.5018 8.35224 15.7689 8.84283 15.7792C9.28873 15.7883 9.78619 15.6049 10.3352 15.229C14.0811 12.6992 16.0149 11.4211 16.1364 11.3936C16.2223 11.3742 16.3416 11.3489 16.4218 11.4211C16.502 11.4922 16.494 11.6275 16.486 11.6642C16.4332 11.8854 14.3768 13.7985 13.3109 14.7889C12.9785 15.0971 12.7435 15.3161 12.6953 15.3666C12.5876 15.4777 12.4776 15.5843 12.3721 15.6864C11.7187 16.3144 11.2305 16.7868 12.3996 17.557C12.9613 17.9272 13.4106 18.2332 13.8588 18.5382C14.3482 18.8717 14.8365 19.2042 15.4693 19.619C15.6298 19.7245 15.7833 19.8335 15.9335 19.9401C16.5032 20.3469 17.0156 20.7114 17.6483 20.6541C18.015 20.6197 18.3956 20.2747 18.5882 19.2442C19.0432 16.8074 19.9396 11.53 20.147 9.35448C20.1597 9.17385 20.152 8.99236 20.1242 8.81345C20.1074 8.66894 20.0371 8.53599 19.9269 8.44093C19.7631 8.30682 19.5087 8.27815 19.3939 8.28045C18.877 8.28963 18.0838 8.56587 14.2634 10.1546Z" fill="white"/>
</svg>
