<svg width="14" height="21" viewBox="0 0 14 21" fill="none" xmlns="http://www.w3.org/2000/svg">
<path fill-rule="evenodd" clip-rule="evenodd" d="M9.58333 7.62508C9.58333 9.2129 8.29615 10.5001 6.70833 10.5001C5.12052 10.5001 3.83333 9.2129 3.83333 7.62508C3.83333 6.03726 5.12052 4.75008 6.70833 4.75008C8.29615 4.75008 9.58333 6.03726 9.58333 7.62508ZM7.66667 7.62508C7.66667 8.15435 7.23761 8.58341 6.70833 8.58341C6.17906 8.58341 5.75 8.15435 5.75 7.62508C5.75 7.09581 6.17906 6.66675 6.70833 6.66675C7.23761 6.66675 7.66667 7.09581 7.66667 7.62508Z" fill="#02458D"/>
<path fill-rule="evenodd" clip-rule="evenodd" d="M13.4167 7.62508C13.4167 11.1049 9.87865 16.1011 7.94142 18.5758C7.21113 19.5088 6.70833 20.0834 6.70833 20.0834C6.70833 20.0834 6.20554 19.5088 5.47524 18.5758C3.53802 16.1011 0 11.1049 0 7.62508C0 3.92017 3.00342 0.916748 6.70833 0.916748C10.4132 0.916748 13.4167 3.92017 13.4167 7.62508ZM11.5 7.62508C11.5 8.42404 11.2064 9.50952 10.6217 10.8043C10.0511 12.0677 9.27316 13.3798 8.46774 14.5879C7.85302 15.51 7.23609 16.3511 6.70833 17.0382C6.18058 16.3511 5.56365 15.51 4.94893 14.5879C4.14351 13.3798 3.36554 12.0677 2.79497 10.8043C2.21023 9.50952 1.91667 8.42404 1.91667 7.62508C1.91667 4.97872 4.06197 2.83341 6.70833 2.83341C9.3547 2.83341 11.5 4.97872 11.5 7.62508Z" fill="#02458D"/>
</svg>
