<svg width="28" height="28" viewBox="0 0 28 28" fill="none" xmlns="http://www.w3.org/2000/svg">
<path fill-rule="evenodd" clip-rule="evenodd" d="M13.7549 27.5098C21.3515 27.5098 27.5098 21.3515 27.5098 13.7549C27.5098 6.15828 21.3515 0 13.7549 0C6.15828 0 0 6.15828 0 13.7549C0 21.3515 6.15828 27.5098 13.7549 27.5098Z" fill="white"/>
<path fill-rule="evenodd" clip-rule="evenodd" d="M11.8613 16.1507L11.8607 10.9613L16.8159 13.565L11.8613 16.1507ZM22.7414 10.062C22.7414 10.062 22.562 8.78931 22.0124 8.22886C21.3149 7.49295 20.5332 7.48949 20.175 7.44677C17.6086 7.25977 13.7589 7.25977 13.7589 7.25977H13.7509C13.7509 7.25977 9.90123 7.25977 7.33479 7.44677C6.97602 7.48949 6.19486 7.49295 5.4968 8.22886C4.94717 8.78931 4.76836 10.062 4.76836 10.062C4.76836 10.062 4.58496 11.5569 4.58496 13.0513V14.4527C4.58496 15.9476 4.76836 17.4419 4.76836 17.4419C4.76836 17.4419 4.94717 18.7146 5.4968 19.2751C6.19486 20.011 7.11128 19.9879 7.51934 20.0647C8.98653 20.2066 13.7549 20.2505 13.7549 20.2505C13.7549 20.2505 17.6086 20.2447 20.175 20.0577C20.5332 20.0144 21.3149 20.011 22.0124 19.2751C22.562 18.7146 22.7414 17.4419 22.7414 17.4419C22.7414 17.4419 22.9248 15.9476 22.9248 14.4527V13.0513C22.9248 11.5569 22.7414 10.062 22.7414 10.062Z" fill="#02458D"/>
</svg>
